<?xml version="1.0" encoding="UTF-8" standalone="no"?>
<!-- Created with Inkscape (http://www.inkscape.org/) -->

<svg
   width="271.05396mm"
   height="87.540604mm"
   viewBox="0 0 1024.4559 330.86214"
   version="1.1"
   id="svg1"
   inkscape:version="1.3.2 (1:1.3.2+202311252150+091e20ef0f)"
   sodipodi:docname="zonotope2.svg"
   xmlns:inkscape="http://www.inkscape.org/namespaces/inkscape"
   xmlns:sodipodi="http://sodipodi.sourceforge.net/DTD/sodipodi-0.dtd"
   xmlns="http://www.w3.org/2000/svg"
   xmlns:svg="http://www.w3.org/2000/svg">
  <sodipodi:namedview
     id="namedview1"
     pagecolor="#505050"
     bordercolor="#ffffff"
     borderopacity="1"
     inkscape:showpageshadow="0"
     inkscape:pageopacity="0"
     inkscape:pagecheckerboard="1"
     inkscape:deskcolor="#505050"
     inkscape:document-units="mm"
     inkscape:zoom="1.0495139"
     inkscape:cx="539.7737"
     inkscape:cy="237.7291"
     inkscape:window-width="1920"
     inkscape:window-height="1029"
     inkscape:window-x="0"
     inkscape:window-y="27"
     inkscape:window-maximized="1"
     inkscape:current-layer="layer1">
    <inkscape:page
       x="0"
       y="0"
       width="1024.4558"
       height="330.86215"
       id="page6"
       margin="0"
       bleed="0" />
  </sodipodi:namedview>
  <defs
     id="defs1" />
  <g
     inkscape:label="Layer 1"
     inkscape:groupmode="layer"
     id="layer1"
     transform="translate(-184.86556,-158.65024)">
    <path
       style="fill:#f6f6f6;fill-opacity:1;stroke:#f70000;stroke-width:3.77953;stroke-dasharray:none;stroke-opacity:1"
       d="M 956.24239,332.99843 C 1069.265,222.5016 1069.265,222.5016 1069.265,222.5016"
       id="path1-2-6-1" />
    <path
       style="fill:#f6f6f6;fill-opacity:1;stroke:#2100f7;stroke-width:3.77953;stroke-dasharray:none;stroke-opacity:1"
       d="m 956.7639,332.31145 c 20.38408,69.79997 19.35461,69.79997 19.35461,69.79997"
       id="path2-1-9" />
    <path
       style="fill:#f6f6f6;fill-opacity:1;stroke:#2100f7;stroke-width:3.77953;stroke-dasharray:none;stroke-opacity:1"
       d="m 1068.6774,223.32816 c 20.3841,69.79997 19.3546,69.79997 19.3546,69.79997"
       id="path2-7-8-4" />
    <path
       style="fill:#f6f6f6;fill-opacity:1;stroke:#f70000;stroke-width:3.77953;stroke-dasharray:none;stroke-opacity:1"
       d="M 977.02842,405.38293 C 1090.0511,294.8861 1090.0511,294.8861 1090.0511,294.8861"
       id="path1-6-7-7" />
    <path
       style="fill:#f6f6f6;fill-opacity:1;stroke:#f0f700;stroke-width:3.77953;stroke-dasharray:none;stroke-opacity:1"
       d="m 979.7865,404.49074 c 38.7092,37.8855 38.7092,37.8855 38.7092,37.8855"
       id="path3-8" />
    <path
       style="fill:#f6f6f6;fill-opacity:1;stroke:#f0f700;stroke-width:3.77953;stroke-dasharray:none;stroke-opacity:1"
       d="m 1089.1668,295.46443 c 38.7091,37.8855 38.7091,37.8855 38.7091,37.8855"
       id="path3-2-4" />
    <path
       style="fill:#f6f6f6;fill-opacity:1;stroke:#f0f700;stroke-width:3.77953;stroke-dasharray:none;stroke-opacity:1"
       d="m 1070.8357,221.9398 c 38.7091,37.8855 38.7091,37.8855 38.7091,37.8855"
       id="path3-9-5" />
    <path
       style="fill:#f6f6f6;fill-opacity:1;stroke:#2100f7;stroke-width:3.77953;stroke-dasharray:none;stroke-opacity:1"
       d="m 1109.4716,259.55854 c 20.3841,69.79997 19.3546,69.79997 19.3546,69.79997"
       id="path2-7-9-0" />
    <path
       style="fill:#f6f6f6;fill-opacity:1;stroke:#f70000;stroke-width:3.77953;stroke-dasharray:none;stroke-opacity:1"
       d="M 1015.394,443.72123 C 1128.4167,333.2244 1128.4167,333.2244 1128.4167,333.2244"
       id="path1-6-1-3" />
    <path
       style="fill:#f6f6f6;fill-opacity:1;stroke:#0bcb09;stroke-width:3.77953;stroke-dasharray:none;stroke-opacity:1"
       d="m 1111.1179,259.40004 c 46.1215,0 46.1215,0 46.1215,0"
       id="path4" />
    <path
       style="fill:#f6f6f6;fill-opacity:1;stroke:#0bcb09;stroke-width:3.77953;stroke-dasharray:none;stroke-opacity:1"
       d="m 1129.2249,331.86334 c 46.1215,0 46.1215,0 46.1215,0"
       id="path4-6" />
    <path
       style="fill:#f6f6f6;fill-opacity:1;stroke:#0bcb09;stroke-width:3.77953;stroke-dasharray:none;stroke-opacity:1"
       d="m 1016.695,442.89281 c 46.1215,0 46.1215,0 46.1215,0"
       id="path4-61" />
    <path
       style="fill:#f6f6f6;fill-opacity:1;stroke:#2100f7;stroke-width:3.77953;stroke-dasharray:none;stroke-opacity:1"
       d="m 1155.8029,259.47438 c 20.3841,69.79997 19.3546,69.79997 19.3546,69.79997"
       id="path2-7-9-0-7" />
    <path
       style="fill:#f6f6f6;fill-opacity:1;stroke:#f70000;stroke-width:3.77953;stroke-dasharray:none;stroke-opacity:1"
       d="M 1061.2786,443.91015 C 1174.3013,333.41332 1174.3013,333.41332 1174.3013,333.41332"
       id="path1-6-7-7-9" />
    <text
       xml:space="preserve"
       style="fill:#f6f6f6;fill-opacity:0;fill-rule:nonzero;stroke:#ffffff;stroke-width:3.77953;stroke-dasharray:none;stroke-opacity:1"
       x="252.89148"
       y="440.03818"
       id="text6"><tspan
         sodipodi:role="line"
         id="tspan6"
         x="252.89148"
         y="440.03818" /></text>
    <text
       xml:space="preserve"
       style="fill:#f6f6f6;fill-opacity:0;fill-rule:nonzero;stroke:#ffffff;stroke-width:0;stroke-dasharray:none;stroke-opacity:1"
       x="261.69708"
       y="457.25818"
       id="text10"><tspan
         sodipodi:role="line"
         id="tspan10"
         x="261.69708"
         y="457.25818" /></text>
    <path
       style="fill:#f6f6f6;fill-opacity:1;stroke:#0bcb09;stroke-width:3.77953;stroke-dasharray:none;stroke-opacity:1"
       d="m 1070.2539,220.04031 c 46.1215,0 46.1215,0 46.1215,0"
       id="path4-5" />
    <path
       style="fill:#f6f6f6;fill-opacity:1;stroke:#f0f700;stroke-width:3.77953;stroke-dasharray:none;stroke-opacity:1"
       d="m 1115.6292,220.76422 c 38.7091,37.8855 38.7091,37.8855 38.7091,37.8855"
       id="path3-9-5-2" />
    <path
       style="fill:#f6f6f6;fill-opacity:1;stroke:#f70000;stroke-width:3.77953;stroke-dasharray:none;stroke-opacity:1"
       d="M 207.19318,325.25231 C 320.21579,214.75548 320.21579,214.75548 320.21579,214.75548"
       id="path1-2-6-1-6" />
    <path
       style="fill:#f6f6f6;fill-opacity:1;stroke:#2100f7;stroke-width:3.77953;stroke-dasharray:none;stroke-opacity:1"
       d="m 207.71469,324.56533 c 20.38408,69.79997 19.35461,69.79997 19.35461,69.79997"
       id="path2-1-9-0" />
    <path
       style="fill:#f6f6f6;fill-opacity:1;stroke:#2100f7;stroke-width:3.77953;stroke-dasharray:none;stroke-opacity:1"
       d="m 319.62819,215.58204 c 20.3841,69.79997 19.3546,69.79997 19.3546,69.79997"
       id="path2-7-8-4-6" />
    <path
       style="fill:#f6f6f6;fill-opacity:1;stroke:#f70000;stroke-width:3.77953;stroke-dasharray:none;stroke-opacity:1"
       d="M 227.97921,397.63681 C 341.00189,287.13998 341.00189,287.13998 341.00189,287.13998"
       id="path1-6-7-7-2" />
    <path
       style="fill:#f6f6f6;fill-opacity:1;stroke:#f0f700;stroke-width:3.77953;stroke-dasharray:none;stroke-opacity:1"
       d="m 230.73729,396.74462 c 38.7092,37.8855 38.7092,37.8855 38.7092,37.8855"
       id="path3-8-6" />
    <path
       style="fill:#f6f6f6;fill-opacity:1;stroke:#f0f700;stroke-width:3.77953;stroke-dasharray:none;stroke-opacity:1"
       d="m 340.11759,287.71831 c 38.7091,37.8855 38.7091,37.8855 38.7091,37.8855"
       id="path3-2-4-1" />
    <path
       style="fill:#f6f6f6;fill-opacity:1;stroke:#f0f700;stroke-width:3.77953;stroke-dasharray:none;stroke-opacity:1"
       d="m 321.78649,214.19368 c 38.7091,37.8855 38.7091,37.8855 38.7091,37.8855"
       id="path3-9-5-8" />
    <path
       style="fill:#f6f6f6;fill-opacity:1;stroke:#2100f7;stroke-width:3.77953;stroke-dasharray:none;stroke-opacity:1"
       d="m 360.83429,251.81242 c 20.3841,69.79997 19.3546,69.79997 19.3546,69.79997"
       id="path2-7-9-0-79" />
    <path
       style="fill:#f6f6f6;fill-opacity:1;stroke:#f70000;stroke-width:3.77953;stroke-dasharray:none;stroke-opacity:1"
       d="M 266.34479,435.97511 C 379.36749,325.47828 379.36749,325.47828 379.36749,325.47828"
       id="path1-6-1-3-2" />
    <path
       style="fill:#f6f6f6;fill-opacity:1;stroke:#0bcb09;stroke-width:3.77953;stroke-dasharray:none;stroke-opacity:1"
       d="m 362.06869,251.65392 c 46.1215,0 46.1215,0 46.1215,0"
       id="path4-0" />
    <path
       style="fill:#f6f6f6;fill-opacity:1;stroke:#0bcb09;stroke-width:3.77953;stroke-dasharray:none;stroke-opacity:1"
       d="m 380.17569,324.11722 c 46.1215,0 46.1215,0 46.1215,0"
       id="path4-6-2" />
    <path
       style="fill:#f6f6f6;fill-opacity:1;stroke:#0bcb09;stroke-width:3.77953;stroke-dasharray:none;stroke-opacity:1"
       d="m 267.64579,435.14669 c 46.1215,0 46.1215,0 46.1215,0"
       id="path4-61-3" />
    <path
       style="fill:#f6f6f6;fill-opacity:1;stroke:#2100f7;stroke-width:3.77953;stroke-dasharray:none;stroke-opacity:1"
       d="m 406.75369,251.72826 c 20.3841,69.79997 19.3546,69.79997 19.3546,69.79997"
       id="path2-7-9-0-7-7" />
    <path
       style="fill:#f6f6f6;fill-opacity:1;stroke:#f70000;stroke-width:3.77953;stroke-dasharray:none;stroke-opacity:1"
       d="M 312.22939,436.16403 C 425.25209,325.6672 425.25209,325.6672 425.25209,325.6672"
       id="path1-6-7-7-9-5" />
    <path
       style="fill:#f6f6f6;fill-opacity:1;stroke:#0bcb09;stroke-width:3.77953;stroke-dasharray:none;stroke-opacity:1"
       d="m 321.20469,212.29419 c 46.1215,0 46.1215,0 46.1215,0"
       id="path4-5-9" />
    <path
       style="fill:#f6f6f6;fill-opacity:1;stroke:#f0f700;stroke-width:3.77953;stroke-dasharray:none;stroke-opacity:1"
       d="m 366.57999,213.0181 c 38.7091,37.8855 38.7091,37.8855 38.7091,37.8855"
       id="path3-9-5-2-2" />
    <path
       style="fill:#f6f6f6;fill-opacity:1;stroke:#f70000;stroke-width:3.77953;stroke-dasharray:none;stroke-opacity:1"
       d="M 455.77718,327.4397 C 568.79979,216.94287 568.79979,216.94287 568.79979,216.94287"
       id="path1-2-6-1-7" />
    <path
       style="fill:#f6f6f6;fill-opacity:1;stroke:#2100f7;stroke-width:3.77953;stroke-dasharray:none;stroke-opacity:1"
       d="m 456.29869,326.75272 c 20.38408,69.79997 19.35461,69.79997 19.35461,69.79997"
       id="path2-1-9-3" />
    <path
       style="fill:#f6f6f6;fill-opacity:1;stroke:#2100f7;stroke-width:3.77953;stroke-dasharray:none;stroke-opacity:1"
       d="m 568.21219,217.76943 c 20.3841,69.79997 19.3546,69.79997 19.3546,69.79997"
       id="path2-7-8-4-61" />
    <path
       style="fill:#f6f6f6;fill-opacity:1;stroke:#f70000;stroke-width:3.77953;stroke-dasharray:none;stroke-opacity:1"
       d="M 476.56321,399.8242 C 589.58589,289.32737 589.58589,289.32737 589.58589,289.32737"
       id="path1-6-7-7-29" />
    <path
       style="fill:#f6f6f6;fill-opacity:1;stroke:#f0f700;stroke-width:3.77953;stroke-dasharray:none;stroke-opacity:1"
       d="m 479.32129,398.93201 c 38.7092,37.8855 38.7092,37.8855 38.7092,37.8855"
       id="path3-8-3" />
    <path
       style="fill:#f6f6f6;fill-opacity:1;stroke:#f0f700;stroke-width:3.77953;stroke-dasharray:none;stroke-opacity:1"
       d="m 588.70159,289.9057 c 38.7091,37.8855 38.7091,37.8855 38.7091,37.8855"
       id="path3-2-4-19" />
    <path
       style="fill:#f6f6f6;fill-opacity:1;stroke:#f0f700;stroke-width:3.77953;stroke-dasharray:none;stroke-opacity:1"
       d="m 570.37049,216.38107 c 38.7091,37.8855 38.7091,37.8855 38.7091,37.8855"
       id="path3-9-5-4" />
    <path
       style="fill:#f6f6f6;fill-opacity:1;stroke:#2100f7;stroke-width:3.77953;stroke-dasharray:none;stroke-opacity:1"
       d="m 609.41829,253.99981 c 20.3841,69.79997 19.3546,69.79997 19.3546,69.79997"
       id="path2-7-9-0-78" />
    <path
       style="fill:#f6f6f6;fill-opacity:1;stroke:#f70000;stroke-width:3.77953;stroke-dasharray:none;stroke-opacity:1"
       d="M 514.92879,438.1625 C 627.95149,327.66567 627.95149,327.66567 627.95149,327.66567"
       id="path1-6-1-3-4" />
    <path
       style="fill:#f6f6f6;fill-opacity:1;stroke:#0bcb09;stroke-width:3.77953;stroke-dasharray:none;stroke-opacity:1"
       d="m 610.65269,253.84131 c 46.1215,0 46.1215,0 46.1215,0"
       id="path4-50" />
    <path
       style="fill:#f6f6f6;fill-opacity:1;stroke:#0bcb09;stroke-width:3.77953;stroke-dasharray:none;stroke-opacity:1"
       d="m 628.75969,326.30461 c 46.1215,0 46.1215,0 46.1215,0"
       id="path4-6-3" />
    <path
       style="fill:#f6f6f6;fill-opacity:1;stroke:#0bcb09;stroke-width:3.77953;stroke-dasharray:none;stroke-opacity:1"
       d="m 516.22979,437.33408 c 46.1215,0 46.1215,0 46.1215,0"
       id="path4-61-6" />
    <path
       style="fill:#f6f6f6;fill-opacity:1;stroke:#2100f7;stroke-width:3.77953;stroke-dasharray:none;stroke-opacity:1"
       d="m 655.33769,253.91565 c 20.3841,69.79997 19.3546,69.79997 19.3546,69.79997"
       id="path2-7-9-0-7-1" />
    <path
       style="fill:#f6f6f6;fill-opacity:1;stroke:#f70000;stroke-width:3.77953;stroke-dasharray:none;stroke-opacity:1"
       d="M 560.81339,438.35142 C 673.83609,327.85459 673.83609,327.85459 673.83609,327.85459"
       id="path1-6-7-7-9-0" />
    <path
       style="fill:#f6f6f6;fill-opacity:1;stroke:#0bcb09;stroke-width:3.77953;stroke-dasharray:none;stroke-opacity:1"
       d="m 569.78869,214.48158 c 46.1215,0 46.1215,0 46.1215,0"
       id="path4-5-6" />
    <path
       style="fill:#f6f6f6;fill-opacity:1;stroke:#f0f700;stroke-width:3.77953;stroke-dasharray:none;stroke-opacity:1"
       d="m 615.16399,215.20549 c 38.7091,37.8855 38.7091,37.8855 38.7091,37.8855"
       id="path3-9-5-2-3" />
    <path
       style="fill:#f6f6f6;fill-opacity:1;stroke:#f70000;stroke-width:3.77953;stroke-dasharray:none;stroke-opacity:1"
       d="M 710.75182,330.26155 C 823.77443,219.76472 823.77443,219.76472 823.77443,219.76472"
       id="path1-2-6-1-1" />
    <path
       style="fill:#f6f6f6;fill-opacity:1;stroke:#2100f7;stroke-width:3.77953;stroke-dasharray:none;stroke-opacity:1"
       d="m 711.27333,329.57457 c 20.38408,69.79997 19.35461,69.79997 19.35461,69.79997"
       id="path2-1-9-5" />
    <path
       style="fill:#f6f6f6;fill-opacity:1;stroke:#2100f7;stroke-width:3.77953;stroke-dasharray:none;stroke-opacity:1"
       d="m 823.18683,220.59128 c 20.3841,69.79997 19.3546,69.79997 19.3546,69.79997"
       id="path2-7-8-4-5" />
    <path
       style="fill:#f6f6f6;fill-opacity:1;stroke:#f70000;stroke-width:3.77953;stroke-dasharray:none;stroke-opacity:1"
       d="M 731.53785,402.64605 C 844.56053,292.14922 844.56053,292.14922 844.56053,292.14922"
       id="path1-6-7-7-4" />
    <path
       style="fill:#f6f6f6;fill-opacity:1;stroke:#f0f700;stroke-width:3.77953;stroke-dasharray:none;stroke-opacity:1"
       d="m 734.29593,401.75386 c 38.7092,37.8855 38.7092,37.8855 38.7092,37.8855"
       id="path3-8-7" />
    <path
       style="fill:#f6f6f6;fill-opacity:1;stroke:#f0f700;stroke-width:3.77953;stroke-dasharray:none;stroke-opacity:1"
       d="m 843.67623,292.72755 c 38.7091,37.8855 38.7091,37.8855 38.7091,37.8855"
       id="path3-2-4-6" />
    <path
       style="fill:#f6f6f6;fill-opacity:1;stroke:#f0f700;stroke-width:3.77953;stroke-dasharray:none;stroke-opacity:1"
       d="m 825.34513,219.20292 c 38.7091,37.8855 38.7091,37.8855 38.7091,37.8855"
       id="path3-9-5-5" />
    <path
       style="fill:#f6f6f6;fill-opacity:1;stroke:#2100f7;stroke-width:3.77953;stroke-dasharray:none;stroke-opacity:1"
       d="m 864.39293,256.82166 c 20.3841,69.79997 19.3546,69.79997 19.3546,69.79997"
       id="path2-7-9-0-6" />
    <path
       style="fill:#f6f6f6;fill-opacity:1;stroke:#f70000;stroke-width:3.77953;stroke-dasharray:none;stroke-opacity:1"
       d="M 769.90343,440.98435 C 882.92613,330.48752 882.92613,330.48752 882.92613,330.48752"
       id="path1-6-1-3-9" />
    <path
       style="fill:#f6f6f6;fill-opacity:1;stroke:#0bcb09;stroke-width:3.77953;stroke-dasharray:none;stroke-opacity:1"
       d="m 865.62733,256.66316 c 46.1215,0 46.1215,0 46.1215,0"
       id="path4-3" />
    <path
       style="fill:#f6f6f6;fill-opacity:1;stroke:#0bcb09;stroke-width:3.77953;stroke-dasharray:none;stroke-opacity:1"
       d="m 883.73433,329.12646 c 46.1215,0 46.1215,0 46.1215,0"
       id="path4-6-7" />
    <path
       style="fill:#f6f6f6;fill-opacity:1;stroke:#0bcb09;stroke-width:3.77953;stroke-dasharray:none;stroke-opacity:1"
       d="m 771.20443,440.15593 c 46.1215,0 46.1215,0 46.1215,0"
       id="path4-61-4" />
    <path
       style="fill:#f6f6f6;fill-opacity:1;stroke:#2100f7;stroke-width:3.77953;stroke-dasharray:none;stroke-opacity:1"
       d="m 910.31233,256.7375 c 20.3841,69.79997 19.3546,69.79997 19.3546,69.79997"
       id="path2-7-9-0-7-5" />
    <path
       style="fill:#f6f6f6;fill-opacity:1;stroke:#f70000;stroke-width:3.77953;stroke-dasharray:none;stroke-opacity:1"
       d="M 815.78803,441.17327 C 928.81073,330.67644 928.81073,330.67644 928.81073,330.67644"
       id="path1-6-7-7-9-2" />
    <path
       style="fill:#f6f6f6;fill-opacity:1;stroke:#0bcb09;stroke-width:3.77953;stroke-dasharray:none;stroke-opacity:1"
       d="m 824.76333,217.30343 c 46.1215,0 46.1215,0 46.1215,0"
       id="path4-5-5" />
    <path
       style="fill:#f6f6f6;fill-opacity:1;stroke:#f0f700;stroke-width:3.77953;stroke-dasharray:none;stroke-opacity:1"
       d="m 870.13863,218.02734 c 38.7091,37.8855 38.7091,37.8855 38.7091,37.8855"
       id="path3-9-5-2-4" />
    <path
       style="fill:#f6f6f6;fill-opacity:0;stroke:#14d603;stroke-width:3.89324;stroke-dasharray:15.5729, 3.89324"
       d="m 1022.6869,467.41992 c 7.0369,-8.23788 9.2675,-19.58036 16.4581,-27.62759 3.3903,-3.79419 9.8409,-5.7316 12.9932,-9.76311 0.6065,-0.7755 -0.2146,-1.9609 0,-2.90817 0.1715,-0.75648 0.6762,-1.40857 1.0828,-2.07726 2.0596,-3.38689 4.4229,-5.92547 7.1463,-8.72445 4.5099,-4.63521 6.7844,-10.93931 11.694,-15.37176 4.0484,-3.65498 9.0574,-6.55763 13.2098,-10.17856 9.9271,-8.65663 18.9227,-18.32327 29.0183,-26.79662 2.593,-2.17637 6.1384,-3.3564 8.8786,-5.40089 8.2576,-6.16093 17.734,-17.73555 21.439,-27.21213 2.3982,-6.13472 1.0826,-17.17863 1.0826,-23.88848 0,-1.97846 0.7573,-11.01059 0,-12.46356 -0.2218,-0.42566 -2.5897,0.42816 -3.0316,-0.20772 -0.5908,-0.84996 -0.4652,-2.45814 -0.8663,-3.32363 -1.5773,-3.40423 -3.8079,-6.62476 -5.1973,-10.17857 -0.6912,-1.76779 -1.8946,-3.99726 -2.1655,-5.81633 -0.3722,-2.49971 0.8283,-5.7189 0,-8.1013 -1.049,-3.01736 -2.5686,-6.60406 -4.3311,-9.13997 -1.5747,-2.26579 -1.8376,-5.52543 -3.2483,-7.89357 -0.5617,-0.94271 -2.2671,-1.74611 -2.5987,-2.70045 -3.6188,-10.41554 -13.9946,-17.69064 -20.7892,-26.38119 -2.1988,-2.81238 -4.0853,-5.89921 -7.1463,-8.10133 -2.4503,-1.76277 -5.3265,-2.91178 -7.796,-4.56998 -5.7985,-3.89355 -12.0809,-8.55664 -17.5408,-12.04811"
       id="path1" />
    <path
       style="fill:#f6f6f6;fill-opacity:0;stroke:#d60303;stroke-width:3.77953;stroke-dasharray:15.1181, 3.77953;stroke-opacity:1"
       d="m 251.47894,247.64155 c 0,13.8639 0,27.72781 0,41.59172 0,10.11504 -0.15191,13.46445 5.97109,22.64895 0.8832,1.3248 -1.47177,20.8227 0,24.50208 7.74737,19.36824 43.56144,44.51182 61.3581,53.73977 6.98504,3.62189 16.32009,9.65957 24.09024,11.32453 10.34196,2.21603 26.33288,0.13083 32.32626,11.11854 1.39324,2.55426 1.81946,5.69872 2.6767,8.44188 0.86126,2.75603 1.6472,5.1221 1.6472,8.03013"
       id="path2" />
    <path
       style="fill:#f6f6f6;fill-opacity:0;stroke:#030bd6;stroke-width:3.77953;stroke-dasharray:15.1181, 3.77953;stroke-opacity:1"
       d="m 438.80808,375.02256 c 13.96963,-10.92332 26.51332,-23.82711 37.88556,-37.47373 3.87012,-4.64412 7.37409,-9.81992 11.53037,-14.20707 9.10732,-9.61321 19.76882,-17.6981 28.62005,-27.59058 7.83982,-8.76208 16.63723,-15.98506 26.14925,-22.85485 3.77177,-2.72405 7.6079,-6.17181 11.7363,-8.23597 4.72766,-2.36378 10.81458,-3.66821 16.06015,-4.3239 2.27519,-0.2844 17.67691,-0.64311 18.9428,0.4118 9.30233,7.75194 11.04992,19.09908 22.23715,27.17875 2.28803,1.65246 3.52746,3.1662 6.38287,4.118 8.71189,2.90394 19.14238,1.6472 28.20828,1.6472 4.79009,0 11.90008,1.31807 16.47195,-0.2059 2.97381,-0.99128 6.00729,-1.61084 9.0596,-2.2649 5.6916,-1.21963 10.25815,-4.9416 16.26608,-4.9416"
       id="path3" />
    <path
       style="fill:#f6f6f6;fill-opacity:0;stroke:#d6d203;stroke-width:3.77953;stroke-dasharray:15.1181, 3.77953;stroke-opacity:1"
       d="m 732.23532,433.47183 c 1.44129,-1.30403 2.80177,-2.70335 4.32387,-3.91208 3.4528,-2.74193 7.50033,-4.77465 10.91267,-7.61827 3.0514,-2.54283 5.06535,-6.09481 7.8242,-8.85367 1.87225,-1.87225 4.14995,-2.80364 6.17701,-4.32393 4.50582,-3.37937 6.28886,-6.00208 11.53034,-9.05955 1.55283,-0.9058 3.35055,-3.27569 4.9416,-3.91213 1.47129,-0.58853 4.11843,0.37917 5.55928,0 2.54622,-0.67004 14.6852,-18.66009 17.08967,-21.61947 6.32182,-7.78078 13.93475,-15.48712 21.41361,-22.03125 4.2994,-3.76205 8.77577,-7.42828 12.97167,-11.32447 1.67152,-1.55213 2.41963,-3.81812 3.91207,-5.55931 2.72845,-3.18318 5.98125,-5.57973 7.82421,-9.26547 0.64131,-1.28257 2.53898,-1.95537 3.2944,-3.0885 0.8976,-1.34641 0.70742,-2.85611 1.44127,-4.32387 0.68954,-1.37916 1.91838,-2.35292 2.26487,-3.9121 0.88955,-4.00296 0,-4.3887 0,-8.44191 0,-7.27511 0,-14.55023 0,-21.82534 0,-2.36524 0.9011,-15.53212 0,-16.88378 -4.23612,-6.35417 -4.11794,-14.38961 -4.11794,-22.03125 0,-1.2358 -0.39157,-3.35495 0,-4.5298 0.73564,-2.20724 7.99074,-4.3239 10.08907,-4.3239 8.7046,0 17.72672,-0.4118 26.56102,-0.4118 6.83975,0 13.97999,0.56799 20.79588,0 4.97464,-0.41455 13.25435,-3.26216 18.32507,-4.5298 3.50277,-0.87566 9.26195,-5.35337 12.14808,-5.35337"
       id="path5" />
  </g>
</svg>
