<?xml version="1.0" encoding="UTF-8" standalone="no"?>
<!-- Created with Inkscape (http://www.inkscape.org/) -->

<svg
   width="271.05396mm"
   height="87.540604mm"
   viewBox="0 0 1024.4559 330.86214"
   version="1.1"
   id="svg1"
   inkscape:version="1.3.2 (1:1.3.2+202311252150+091e20ef0f)"
   sodipodi:docname="zonotope1.svg"
   xmlns:inkscape="http://www.inkscape.org/namespaces/inkscape"
   xmlns:sodipodi="http://sodipodi.sourceforge.net/DTD/sodipodi-0.dtd"
   xmlns="http://www.w3.org/2000/svg"
   xmlns:svg="http://www.w3.org/2000/svg">
  <sodipodi:namedview
     id="namedview1"
     pagecolor="#505050"
     bordercolor="#ffffff"
     borderopacity="1"
     inkscape:showpageshadow="0"
     inkscape:pageopacity="0"
     inkscape:pagecheckerboard="1"
     inkscape:deskcolor="#505050"
     inkscape:document-units="mm"
     inkscape:zoom="1.0495139"
     inkscape:cx="539.7737"
     inkscape:cy="237.7291"
     inkscape:window-width="1920"
     inkscape:window-height="1029"
     inkscape:window-x="0"
     inkscape:window-y="27"
     inkscape:window-maximized="1"
     inkscape:current-layer="layer1">
    <inkscape:page
       x="0"
       y="0"
       width="1024.4558"
       height="330.86215"
       id="page6"
       margin="0"
       bleed="0" />
  </sodipodi:namedview>
  <defs
     id="defs1" />
  <g
     inkscape:label="Layer 1"
     inkscape:groupmode="layer"
     id="layer1"
     transform="translate(-184.86556,-158.65024)">
    <path
       style="fill:#f6f6f6;fill-opacity:1;stroke:#f70000;stroke-width:3.77953;stroke-dasharray:none;stroke-opacity:1"
       d="M 243.05643,388.15946 C 356.07902,277.66263 356.07902,277.66263 356.07902,277.66263"
       id="path1" />
    <path
       style="fill:#f6f6f6;fill-opacity:1;stroke:#f70000;stroke-width:3.77953;stroke-dasharray:none;stroke-opacity:1"
       d="M 438.29765,346.8473 C 551.32024,236.35047 551.32024,236.35047 551.32024,236.35047"
       id="path1-2" />
    <path
       style="fill:#f6f6f6;fill-opacity:1;stroke:#2100f7;stroke-width:3.77953;stroke-dasharray:none;stroke-opacity:1"
       d="m 438.81916,346.16032 c 20.38408,69.79997 19.35461,69.79997 19.35461,69.79997"
       id="path2" />
    <path
       style="fill:#f6f6f6;fill-opacity:1;stroke:#2100f7;stroke-width:3.77953;stroke-dasharray:none;stroke-opacity:1"
       d="M 550.73263,237.17703 C 571.11671,306.977 570.08724,306.977 570.08724,306.977"
       id="path2-7" />
    <path
       style="fill:#f6f6f6;fill-opacity:1;stroke:#f70000;stroke-width:3.77953;stroke-dasharray:none;stroke-opacity:1"
       d="M 459.08368,419.2318 C 572.10627,308.73497 572.10627,308.73497 572.10627,308.73497"
       id="path1-6" />
    <path
       style="fill:#f6f6f6;fill-opacity:1;stroke:#f70000;stroke-width:3.77953;stroke-dasharray:none;stroke-opacity:1"
       d="M 653.62381,329.92308 C 766.6464,219.42625 766.6464,219.42625 766.6464,219.42625"
       id="path1-2-6" />
    <path
       style="fill:#f6f6f6;fill-opacity:1;stroke:#2100f7;stroke-width:3.77953;stroke-dasharray:none;stroke-opacity:1"
       d="m 654.14532,329.2361 c 20.38408,69.79997 19.35461,69.79997 19.35461,69.79997"
       id="path2-1" />
    <path
       style="fill:#f6f6f6;fill-opacity:1;stroke:#2100f7;stroke-width:3.77953;stroke-dasharray:none;stroke-opacity:1"
       d="m 766.05879,220.25281 c 20.38408,69.79997 19.35461,69.79997 19.35461,69.79997"
       id="path2-7-8" />
    <path
       style="fill:#f6f6f6;fill-opacity:1;stroke:#f70000;stroke-width:3.77953;stroke-dasharray:none;stroke-opacity:1"
       d="M 674.40984,402.30758 C 787.43243,291.81075 787.43243,291.81075 787.43243,291.81075"
       id="path1-6-7" />
    <path
       style="fill:#f6f6f6;fill-opacity:1;stroke:#f0f700;stroke-width:3.77953;stroke-dasharray:none;stroke-opacity:1"
       d="m 677.16792,401.41539 c 38.70915,37.8855 38.70915,37.8855 38.70915,37.8855"
       id="path3" />
    <path
       style="fill:#f6f6f6;fill-opacity:1;stroke:#f0f700;stroke-width:3.77953;stroke-dasharray:none;stroke-opacity:1"
       d="m 786.54815,292.38908 c 38.70915,37.8855 38.70915,37.8855 38.70915,37.8855"
       id="path3-2" />
    <path
       style="fill:#f6f6f6;fill-opacity:1;stroke:#f0f700;stroke-width:3.77953;stroke-dasharray:none;stroke-opacity:1"
       d="m 768.21705,218.86445 c 38.70915,37.8855 38.70915,37.8855 38.70915,37.8855"
       id="path3-9" />
    <path
       style="fill:#f6f6f6;fill-opacity:1;stroke:#2100f7;stroke-width:3.77953;stroke-dasharray:none;stroke-opacity:1"
       d="m 807.26484,256.48319 c 20.38408,69.79997 19.35461,69.79997 19.35461,69.79997"
       id="path2-7-9" />
    <path
       style="fill:#f6f6f6;fill-opacity:1;stroke:#f70000;stroke-width:3.77953;stroke-dasharray:none;stroke-opacity:1"
       d="M 712.77544,440.64588 C 825.79803,330.14905 825.79803,330.14905 825.79803,330.14905"
       id="path1-6-1" />
    <path
       style="fill:#f6f6f6;fill-opacity:1;stroke:#f70000;stroke-width:3.77953;stroke-dasharray:none;stroke-opacity:1"
       d="M 893.03122,332.99843 C 1006.0538,222.5016 1006.0538,222.5016 1006.0538,222.5016"
       id="path1-2-6-1" />
    <path
       style="fill:#f6f6f6;fill-opacity:1;stroke:#2100f7;stroke-width:3.77953;stroke-dasharray:none;stroke-opacity:1"
       d="m 893.55273,332.31145 c 20.38408,69.79997 19.35461,69.79997 19.35461,69.79997"
       id="path2-1-9" />
    <path
       style="fill:#f6f6f6;fill-opacity:1;stroke:#2100f7;stroke-width:3.77953;stroke-dasharray:none;stroke-opacity:1"
       d="m 1005.4662,223.32816 c 20.3841,69.79997 19.3546,69.79997 19.3546,69.79997"
       id="path2-7-8-4" />
    <path
       style="fill:#f6f6f6;fill-opacity:1;stroke:#f70000;stroke-width:3.77953;stroke-dasharray:none;stroke-opacity:1"
       d="M 913.81725,405.38293 C 1026.8399,294.8861 1026.8399,294.8861 1026.8399,294.8861"
       id="path1-6-7-7" />
    <path
       style="fill:#f6f6f6;fill-opacity:1;stroke:#f0f700;stroke-width:3.77953;stroke-dasharray:none;stroke-opacity:1"
       d="m 916.57533,404.49074 c 38.70915,37.8855 38.70915,37.8855 38.70915,37.8855"
       id="path3-8" />
    <path
       style="fill:#f6f6f6;fill-opacity:1;stroke:#f0f700;stroke-width:3.77953;stroke-dasharray:none;stroke-opacity:1"
       d="m 1025.9556,295.46443 c 38.7091,37.8855 38.7091,37.8855 38.7091,37.8855"
       id="path3-2-4" />
    <path
       style="fill:#f6f6f6;fill-opacity:1;stroke:#f0f700;stroke-width:3.77953;stroke-dasharray:none;stroke-opacity:1"
       d="m 1007.6245,221.9398 c 38.7091,37.8855 38.7091,37.8855 38.7091,37.8855"
       id="path3-9-5" />
    <path
       style="fill:#f6f6f6;fill-opacity:1;stroke:#2100f7;stroke-width:3.77953;stroke-dasharray:none;stroke-opacity:1"
       d="m 1046.6723,259.55854 c 20.3841,69.79997 19.3546,69.79997 19.3546,69.79997"
       id="path2-7-9-0" />
    <path
       style="fill:#f6f6f6;fill-opacity:1;stroke:#f70000;stroke-width:3.77953;stroke-dasharray:none;stroke-opacity:1"
       d="M 952.18285,443.72123 C 1065.2055,333.2244 1065.2055,333.2244 1065.2055,333.2244"
       id="path1-6-1-3" />
    <path
       style="fill:#f6f6f6;fill-opacity:1;stroke:#0bcb09;stroke-width:3.77953;stroke-dasharray:none;stroke-opacity:1"
       d="m 1047.9067,259.40004 c 46.1215,0 46.1215,0 46.1215,0"
       id="path4" />
    <path
       style="fill:#f6f6f6;fill-opacity:1;stroke:#0bcb09;stroke-width:3.77953;stroke-dasharray:none;stroke-opacity:1"
       d="m 1066.0137,331.86334 c 46.1215,0 46.1215,0 46.1215,0"
       id="path4-6" />
    <path
       style="fill:#f6f6f6;fill-opacity:1;stroke:#0bcb09;stroke-width:3.77953;stroke-dasharray:none;stroke-opacity:1"
       d="m 953.48382,442.89281 c 46.1215,0 46.1215,0 46.1215,0"
       id="path4-61" />
    <path
       style="fill:#f6f6f6;fill-opacity:1;stroke:#2100f7;stroke-width:3.77953;stroke-dasharray:none;stroke-opacity:1"
       d="m 1092.5917,259.47438 c 20.3841,69.79997 19.3546,69.79997 19.3546,69.79997"
       id="path2-7-9-0-7" />
    <path
       style="fill:#f6f6f6;fill-opacity:1;stroke:#f70000;stroke-width:3.77953;stroke-dasharray:none;stroke-opacity:1"
       d="M 998.06739,443.91015 C 1111.0901,333.41332 1111.0901,333.41332 1111.0901,333.41332"
       id="path1-6-7-7-9" />
    <text
       xml:space="preserve"
       style="fill:#f6f6f6;fill-opacity:0;fill-rule:nonzero;stroke:#ffffff;stroke-width:3.77953;stroke-dasharray:none;stroke-opacity:1"
       x="252.89148"
       y="440.03818"
       id="text6"><tspan
         sodipodi:role="line"
         id="tspan6"
         x="252.89148"
         y="440.03818" /></text>
    <text
       xml:space="preserve"
       style="fill:#f6f6f6;fill-opacity:0;fill-rule:nonzero;stroke:#ffffff;stroke-width:0;stroke-dasharray:none;stroke-opacity:1"
       x="261.69708"
       y="457.25818"
       id="text10"><tspan
         sodipodi:role="line"
         id="tspan10"
         x="261.69708"
         y="457.25818" /></text>
    <path
       style="fill:#f6f6f6;fill-opacity:1;stroke:#0bcb09;stroke-width:3.77953;stroke-dasharray:none;stroke-opacity:1"
       d="m 1007.0427,220.04031 c 46.1215,0 46.1215,0 46.1215,0"
       id="path4-5" />
    <path
       style="fill:#f6f6f6;fill-opacity:1;stroke:#f0f700;stroke-width:3.77953;stroke-dasharray:none;stroke-opacity:1"
       d="m 1052.418,220.76422 c 38.7091,37.8855 38.7091,37.8855 38.7091,37.8855"
       id="path3-9-5-2" />
  </g>
</svg>
